<svg xmlns="http://www.w3.org/2000/svg" xmlns:xlink="http://www.w3.org/1999/xlink" width="100" zoomAndPan="magnify" viewBox="0 0 75 74.999997" height="100" preserveAspectRatio="xMidYMid meet" version="1.0"><defs><clipPath id="bf47a8c2ce"><path d="M 1.351562 1.890625 L 73.351562 1.890625 L 73.351562 73.140625 L 1.351562 73.140625 Z M 1.351562 1.890625 " clip-rule="nonzero"/></clipPath></defs><g clip-path="url(#bf47a8c2ce)"><path fill="#944b97" d="M 55.453125 46.5625 C 53.457031 44.644531 51.464844 43.621094 50.066406 41.09375 C 48.011719 37.386719 47.453125 33.914062 43.054688 32.039062 C 41.386719 31.332031 37.066406 30.617188 35.289062 30.796875 C 31.855469 31.152344 28.613281 33.6875 26.378906 36.152344 C 24.101562 38.667969 22.621094 41.675781 20.007812 43.871094 C 16.820312 46.542969 14.386719 47.992188 12.03125 51.6875 C 6.207031 60.835938 10.695312 71.675781 21.636719 73.019531 C 28.300781 73.839844 31.683594 68.78125 38.316406 69.171875 C 41.460938 69.355469 44.417969 70.8125 47.550781 70.972656 C 48.757812 71.035156 50.023438 70.933594 51.238281 70.964844 C 53.035156 71.011719 53.824219 71.351562 55.648438 70.625 C 61.183594 68.425781 62.867188 62.429688 61.75 56.953125 C 61.117188 53.863281 57.734375 48.75 55.453125 46.5625 Z M 48.050781 49.570312 C 47.71875 54.050781 41.480469 60.386719 37.433594 61.921875 C 36.433594 62.300781 36.101562 62.210938 35.191406 61.710938 C 32.980469 60.492188 28.613281 56.042969 27.515625 53.773438 C 26.273438 51.21875 24.964844 45.496094 28.097656 43.886719 C 32.261719 41.746094 35.8125 45.375 36.65625 49.253906 L 37.445312 47.578125 C 40.5 42.332031 48.640625 41.652344 48.050781 49.574219 Z M 19.917969 27.902344 C 15.429688 23.023438 14.925781 15.371094 17.945312 9.59375 C 19.5 6.613281 23.292969 2.203125 26.855469 1.90625 C 31.328125 1.535156 33.789062 8.367188 34.308594 11.894531 C 35.226562 18.160156 35.695312 27.050781 28.421875 29.582031 C 25.816406 30.488281 21.863281 30.011719 19.917969 27.898438 Z M 38.292969 23.792969 C 37.15625 19.628906 38.03125 11.886719 39.777344 7.921875 C 40.675781 5.878906 42.855469 2.585938 45.246094 2.261719 C 48.929688 1.765625 52.550781 6 54.21875 8.851562 C 56.488281 12.726562 57.113281 17.226562 56.0625 21.605469 C 55.335938 24.621094 52.914062 28.875 49.835938 29.914062 C 44.816406 31.613281 39.6875 28.890625 38.292969 23.792969 Z M 10.230469 44.945312 C 0.835938 44.308594 -0.0507812 30.429688 2.8125 23.800781 C 3.839844 21.417969 5.414062 18.683594 8.277344 18.324219 C 10.535156 18.039062 11.523438 19.144531 13.011719 20.539062 C 15.15625 22.550781 16.507812 24.179688 17.675781 26.914062 C 19.472656 31.140625 20.308594 34.589844 18.390625 39.023438 C 17.097656 42.011719 13.679688 45.179688 10.230469 44.945312 Z M 70.078125 39.746094 C 68.808594 41.199219 67.636719 42.296875 65.652344 42.675781 C 60.320312 43.695312 55.976562 41.046875 55.585938 35.390625 C 55.351562 32.019531 56.847656 26.035156 58.53125 23.085938 C 59.53125 21.328125 61.796875 18.609375 63.90625 18.324219 C 68.003906 17.769531 71.851562 22.613281 72.945312 26.105469 C 74.464844 30.972656 73.390625 35.9375 70.078125 39.746094 Z M 70.078125 39.746094 " fill-opacity="1" fill-rule="nonzero"/></g></svg>